<svg xmlns="http://www.w3.org/2000/svg" width="17" height="16" fill="none" viewBox="0 0 17 16">
  <path fill="#fff" d="m14.233 1.896.371.371a.733.733 0 0 1 0 1.04l-.892.895-1.414-1.414.893-.892a.733.733 0 0 1 1.039 0h.003Zm-7.09 6.05 4.116-4.118 1.413 1.413-4.118 4.116a.734.734 0 0 1-.319.187l-1.794.512.512-1.794a.734.734 0 0 1 .187-.32l.004.004Zm5.008-7.09-6.05 6.047a2.19 2.19 0 0 0-.561.954l-.877 3.067a.735.735 0 0 0 .91.91l3.067-.877c.362-.104.69-.297.954-.561l6.05-6.047a2.208 2.208 0 0 0 0-3.122l-.371-.37a2.208 2.208 0 0 0-3.122 0ZM3.409 2.052A2.698 2.698 0 0 0 .71 4.751v8.34a2.698 2.698 0 0 0 2.7 2.699h8.34a2.698 2.698 0 0 0 2.699-2.699V9.657a.734.734 0 0 0-.736-.736.734.734 0 0 0-.736.736v3.434c0 .678-.55 1.227-1.227 1.227H3.41a1.226 1.226 0 0 1-1.227-1.227v-8.34c0-.678.549-1.227 1.227-1.227h3.434a.734.734 0 0 0 .736-.736.734.734 0 0 0-.736-.736H3.409Z"/>
</svg>
