<svg xmlns="http://www.w3.org/2000/svg" width="20" height="20" fill="none" viewBox="0 0 20 20">
  <path fill="#000" d="M9.677 4.713a4.952 4.952 0 0 0-4.96 4.96 4.952 4.952 0 0 0 4.96 4.96 4.952 4.952 0 0 0 4.96-4.96 4.952 4.952 0 0 0-4.96-4.96Zm0 8.185a3.23 3.23 0 0 1-3.224-3.225 3.228 3.228 0 0 1 3.224-3.225 3.228 3.228 0 0 1 3.225 3.225 3.23 3.23 0 0 1-3.225 3.225Zm6.32-8.388c0 .643-.518 1.157-1.157 1.157a1.157 1.157 0 1 1 1.157-1.157Zm3.285 1.174c-.073-1.55-.427-2.922-1.563-4.053C16.59.5 15.216.146 13.666.068c-1.597-.09-6.385-.09-7.982 0C4.14.141 2.766.495 1.631 1.626.495 2.757.146 4.13.068 5.68c-.09 1.597-.09 6.384 0 7.982.073 1.55.427 2.922 1.563 4.053 1.135 1.131 2.503 1.485 4.053 1.563 1.597.09 6.385.09 7.982 0 1.55-.074 2.922-.428 4.053-1.563 1.131-1.131 1.485-2.504 1.563-4.053.09-1.598.09-6.38 0-7.978Zm-2.063 9.691a3.265 3.265 0 0 1-1.84 1.84c-1.273.504-4.295.388-5.702.388s-4.433.112-5.702-.389a3.265 3.265 0 0 1-1.84-1.839c-.504-1.273-.388-4.295-.388-5.702s-.112-4.434.389-5.703a3.265 3.265 0 0 1 1.839-1.839c1.273-.505 4.295-.388 5.702-.388s4.434-.112 5.703.388a3.265 3.265 0 0 1 1.839 1.84c.505 1.273.388 4.295.388 5.702s.117 4.433-.388 5.702Z"/>
</svg>
