<svg xmlns="http://www.w3.org/2000/svg" width="76" height="76" fill="none" viewBox="0 0 76 76">
  <path fill="#B9C5CC" d="M63.552 15.888c1.17 0 2.129.958 2.129 2.13v42.559l-.665-.865-18.1-23.423a3.184 3.184 0 0 0-2.528-1.237c-.985 0-1.916.452-2.529 1.237L30.814 50.582l-4.06-5.682a3.173 3.173 0 0 0-2.595-1.331 3.15 3.15 0 0 0-2.595 1.344L10.918 59.818l-.599.825V18.017c0-1.17.958-2.13 2.13-2.13h51.103ZM12.448 9.5c-4.698 0-8.517 3.82-8.517 8.517v42.586c0 4.698 3.82 8.518 8.517 8.518h51.104c4.697 0 8.517-3.82 8.517-8.518V18.017c0-4.697-3.82-8.517-8.517-8.517H12.448Zm10.647 25.552a6.388 6.388 0 1 0 0-12.777 6.388 6.388 0 0 0 0 12.777Z"/>
</svg>
