<svg xmlns="http://www.w3.org/2000/svg" width="9" height="11" fill="none" viewBox="0 0 9 11">
  <path fill="#fff" d="M2.716.356A.64.64 0 0 1 3.291 0h2.418a.64.64 0 0 1 .575.356l.145.287h1.928a.642.642 0 1 1 0 1.286H.643a.642.642 0 1 1 0-1.286H2.57l.145-.287ZM.643 2.57h7.714V9c0 .71-.576 1.286-1.286 1.286H1.93A1.287 1.287 0 0 1 .643 9V2.571ZM2.57 3.857a.322.322 0 0 0-.321.322v4.5c0 .176.145.321.321.321a.322.322 0 0 0 .322-.321v-4.5a.322.322 0 0 0-.322-.322Zm1.929 0a.322.322 0 0 0-.321.322v4.5c0 .176.144.321.321.321a.322.322 0 0 0 .321-.321v-4.5a.322.322 0 0 0-.321-.322Zm1.929 0a.322.322 0 0 0-.322.322v4.5a.322.322 0 0 0 .643 0v-4.5a.322.322 0 0 0-.321-.322Z"/>
</svg>
